<svg width="37" height="35" viewBox="0 0 37 35" fill="none" xmlns="http://www.w3.org/2000/svg">
<g filter="url(#filter0_d_93_1585)">
<ellipse cx="14.5" cy="13.5" rx="14.5" ry="13.5" transform="matrix(-1 0 0 1 33 3.05176e-05)" fill="white"/>
</g>
<g clip-path="url(#clip0_93_1585)">
<path d="M15.4302 8.13321C14.4784 7.73124 13.5547 8.75836 14.0551 9.66237L16.5805 14.2262L14.8855 19.1595C14.5498 20.1371 15.6382 20.9883 16.5062 20.4272L25.8527 14.3808C26.019 14.2735 26.1528 14.1229 26.2399 13.9452C26.327 13.7675 26.364 13.5693 26.3468 13.3722C26.3297 13.175 26.2592 12.9862 26.1428 12.8262C26.0264 12.6661 25.8686 12.5408 25.6863 12.4638L15.4302 8.13321Z" stroke="black" stroke-width="1.5"/>
</g>
<defs>
<filter id="filter0_d_93_1585" x="0" y="3.05176e-05" width="37" height="35" filterUnits="userSpaceOnUse" color-interpolation-filters="sRGB">
<feFlood flood-opacity="0" result="BackgroundImageFix"/>
<feColorMatrix in="SourceAlpha" type="matrix" values="0 0 0 0 0 0 0 0 0 0 0 0 0 0 0 0 0 0 127 0" result="hardAlpha"/>
<feOffset dy="4"/>
<feGaussianBlur stdDeviation="2"/>
<feComposite in2="hardAlpha" operator="out"/>
<feColorMatrix type="matrix" values="0 0 0 0 0 0 0 0 0 0 0 0 0 0 0 0 0 0 0.25 0"/>
<feBlend mode="normal" in2="BackgroundImageFix" result="effect1_dropShadow_93_1585"/>
<feBlend mode="normal" in="SourceGraphic" in2="effect1_dropShadow_93_1585" result="shape"/>
</filter>
<clipPath id="clip0_93_1585">
<rect width="19.0814" height="19.0814" fill="white" transform="matrix(-0.707107 -0.707107 -0.707107 0.707107 32 13.4926)"/>
</clipPath>
</defs>
</svg>
